<svg id="Capa_1" enable-background="new 0 0 501 501" height="512" viewBox="0 0 501 501" width="512" xmlns="http://www.w3.org/2000/svg"><g><path d="m476.863 235.697c7.296 0 13.204 5.966 13.106 13.261 0 .015 0 .029-.001.042-2.122 132.552-109.51 239.528-242.223 240.985-136.728 1.501-248.707-110.024-247.739-246.757.598-84.379 43.851-158.619 109.269-202.23 5.566-3.711 13.028.297 13.028 6.986v177.712c0 5.523 4.477 10 10 10h344.56z" fill="#eac23f"/><path d="m490 245c0 1.336-.011 2.669-.032 4h-370.968c-5.523 0-10-4.477-10-10v-197.817c38.908-26.014 85.683-41.183 136-41.183 135.31 0 245 109.69 245 245z" fill="#c8e2fd"/><path d="m155.768 249h-36.768c-5.523 0-10-4.477-10-10v-197.817c11.164-7.464 22.976-14.035 35.333-19.612v215.994c0 6.315 5.12 11.435 11.435 11.435z" fill="#a7d0fc"/><path d="m271.78 78.246v34.866c0 12.837-10.407 23.244-23.244 23.244l-77.265-37.07c-3.027-1.452-3.027-5.762 0-7.215l77.265-37.07c12.837.001 23.244 10.407 23.244 23.245z" fill="#e1b91e"/><path d="m271.78 78.246-23.244 25.435-77.265-4.395c-3.027-1.452-3.027-5.762 0-7.215l77.265-37.07c12.837.001 23.244 10.407 23.244 23.245z" fill="#e9cc5a"/><path d="m248.535 55.001h151.156c27.058 22.056 49.315 49.777 64.963 81.354h-216.119z" fill="#ea552d"/><path d="m270.446 82.844v-5.005c0-4.142 3.358-7.5 7.5-7.5h138.863c6.431 6.326 12.514 13.005 18.218 20.005h-157.081c-4.142 0-7.5-3.358-7.5-7.5zm174.713 20.837h-196.624v32.675h216.119c-5.662-11.425-12.188-22.345-19.495-32.675z" fill="#bc3f2a"/><path d="m171.27 92.071 32.492-15.589v38.392l-32.492-15.588c-3.027-1.452-3.027-5.762 0-7.215z" fill="#453d83"/><path d="m200.385 225.889-38.349 66.422c-2.68 4.641-7.631 7.5-12.99 7.5h-15.106v89.189c0 11.046-8.954 20-20 20h-6.487c-11.046 0-20-8.954-20-20v-89.189h-15.104c-5.359 0-10.311-2.859-12.99-7.5l-38.349-66.422c-2.68-4.641-2.68-10.359 0-15l33.543-58.098c5.653-9.791 16.1-15.823 27.407-15.823 2.209 0 4 1.791 4 4v84.105c0 13.044 10.096 23.73 22.899 24.67 14.593 1.072 26.576-10.732 26.576-25.365v-83.411c0-2.209 1.791-4 4-4 11.306 0 21.754 6.032 27.407 15.823l33.543 58.098c2.679 4.642 2.679 10.36 0 15.001z" fill="#51489a"/><path d="m87.454 299.811h-15.105c-5.359 0-10.311-2.859-12.99-7.5l-38.349-66.422c-2.68-4.641-2.68-10.359 0-15l33.543-58.098c5.653-9.791 16.1-15.823 27.407-15.823 2.141 0 3.89 1.683 3.995 3.798l-38.922 67.415c-3.502 6.066-3.502 13.54 0 19.606z" fill="#453d83"/><path d="m92.332 436.629c-8.278-6.604-16.12-13.733-23.473-21.337v-35.481c0-11.046 8.954-20 20-20h30.013c-11.046 0-20 8.954-20 20v53.697c0 3.376-3.901 5.227-6.54 3.121z" fill="#bc3f2a"/><path d="m152.535 379.811v92.14c-21.907-8.935-42.23-20.949-60.432-35.505v-56.635c0-11.046 8.954-20 20-20h20.432c11.046 0 20 8.954 20 20z" fill="#ea552d"/><path d="m133.94 393.054v70.386c-8.012-4.082-15.77-8.591-23.243-13.499v-56.888c0-5.523 4.477-10 10-10h3.243c5.523.001 10 4.478 10 10.001z" fill="#bc3f2a"/><path d="m372.571 206v37.667c0 8.284-6.716 15-15 15h-23.143c-8.284 0-15-6.716-15-15v-37.667c0-8.284 6.716-15 15-15h23.143c8.285 0 15 6.716 15 15zm-15 225.333h-23.143c-8.284 0-15 6.716-15 15v39.667c0 8.284 6.716 15 15 15h23.143c8.284 0 15-6.716 15-15v-39.667c0-8.284-6.715-15-15-15zm-96.372-73.762v-23.143c0-8.284-6.716-15-15-15h-40.199c-8.284 0-15 6.716-15 15v23.143c0 8.284 6.716 15 15 15h40.199c8.284 0 15-6.715 15-15zm224.801-38.143h-40.533c-8.284 0-15 6.716-15 15v23.143c0 8.284 6.716 15 15 15h40.533c8.284 0 15-6.716 15-15v-23.143c0-8.284-6.716-15-15-15zm-230.062-25.912c5.858 5.858 15.355 5.858 21.213 0l16.365-16.365c5.858-5.858 5.858-15.355 0-21.213l-27.722-27.722c-5.858-5.858-15.355-5.858-21.213 0l-16.364 16.365c-5.858 5.858-5.858 15.355 0 21.213zm181.402 106.246c-5.858-5.858-15.355-5.858-21.213 0l-16.364 16.365c-5.858 5.858-5.858 15.355 0 21.213l26.444 26.444c5.858 5.858 15.355 5.858 21.213 0l16.365-16.364c5.858-5.858 5.858-15.355 0-21.213zm-159.522-1.944c-5.858-5.858-15.355-5.858-21.213 0l-28.388 28.388c-5.858 5.858-5.858 15.355 0 21.213l16.364 16.364c5.858 5.858 15.355 5.858 21.213 0l28.388-28.388c5.858-5.858 5.858-15.355 0-21.213zm135.698-102.969c5.858 5.858 15.355 5.858 21.213 0l29.055-29.055c5.858-5.858 5.858-15.355 0-21.213l-16.365-16.365c-5.858-5.858-15.355-5.858-21.213 0l-29.055 29.055c-5.858 5.858-5.858 15.355 0 21.213z" fill="#5f55af"/><path d="m346 216c-71.797 0-130 58.203-130 130s58.203 130 130 130 130-58.203 130-130-58.203-130-130-130zm0 217.333c-48.233 0-87.333-39.1-87.333-87.333s39.1-87.333 87.333-87.333 87.333 39.1 87.333 87.333-39.1 87.333-87.333 87.333z" fill="#8078bf"/><path d="m431.756 358.333c7.35 0 12.653 7.002 10.715 14.092-11.604 42.463-50.495 73.659-96.658 73.575-56.345-.103-101.084-46.017-99.786-102.347.429-18.624 5.95-35.989 15.224-50.758 4.95-7.883 16.758-6.319 19.639 2.533.028.086.056.172.084.257 1.022 3.112.668 6.506-1.063 9.288-7.73 12.426-12.054 27.193-11.664 42.993 1.033 41.889 35.686 75.725 77.588 75.812 35.904.075 66.156-24.179 75.192-57.199 1.327-4.854 5.696-8.246 10.729-8.246z" fill="#453d83"/><path d="m266.728 317.111h-.455c-8.133 0-13.379-8.568-9.736-15.839 16.526-32.99 50.762-55.57 90.242-55.269 53.088.404 97.048 42.898 99.142 95.947.471 11.919-1.146 23.398-4.514 34.101-1.441 4.578-5.638 7.727-10.437 7.727h-.434c-7.431 0-12.593-7.239-10.355-14.325 2.524-7.992 3.793-16.541 3.574-25.417-1.036-42.033-35.969-75.951-78.014-75.813-30.249.099-56.431 17.465-69.206 42.758-1.883 3.724-5.635 6.13-9.807 6.13z" fill="#51489a"/><path d="m400.761 340.11-21.463-35.6c-2.852-4.731-8.999-6.253-13.728-3.401s-6.252 8.998-3.401 13.727l18.412 30.539-18.501 31.939c-2.768 4.779-1.138 10.897 3.641 13.666 1.578.914 3.302 1.349 5.003 1.348 3.451 0 6.809-1.788 8.663-4.989l21.463-37.054c1.827-3.154 1.793-7.053-.089-10.175zm-89.343 5.265 18.412-30.539c2.851-4.729 1.328-10.875-3.401-13.727-4.73-2.853-10.876-1.329-13.728 3.401l-21.463 35.6c-1.882 3.122-1.916 7.021-.089 10.175l21.463 37.054c1.854 3.201 5.212 4.99 8.663 4.989 1.7 0 3.425-.435 5.003-1.348 4.778-2.769 6.408-8.887 3.641-13.666z" fill="#fff5f5"/></g></svg>