<svg id="Capa_1" enable-background="new 0 0 512 512" height="512" viewBox="0 0 512 512" width="512" xmlns="http://www.w3.org/2000/svg"><g><g><path d="m245 11c-61.451 0-117.615 22.627-160.623 60l160.623 430c135.31 0 245-109.69 245-245s-109.69-245-245-245z" fill="#9bd8f9"/></g><g><circle cx="245" cy="231" fill="#73c3f9" r="200"/></g><g><g><path d="m274.444 71h-77.778l-46.666 25.435-46.667-25.435h-18.956c-51.692 44.919-84.377 111.141-84.377 185 0 33.688 6.803 65.786 19.104 95h270.896v-264.444c0-8.592-6.964-15.556-15.556-15.556z" fill="#f6b784"/></g><g><path d="m64.444 335.444v-245.034c-40.013 43.607-64.444 101.742-64.444 165.59 0 33.688 6.803 65.786 19.104 95h60.896c-8.591 0-15.556-6.964-15.556-15.556z" fill="#f99271"/></g><g><path d="m103.333 200.357c0 6.206 6.91 9.91 12.081 6.478 2.785-1.848 5.695-3.613 11.253-3.613 11.667 0 11.667 7.778 23.335 7.778 11.666 0 11.666-7.778 23.332-7.778 5.556 0 8.466 1.764 11.251 3.612 5.171 3.432 12.082-.271 12.082-6.478v-129.356h-93.333v129.357z" fill="#fff"/></g><g><path d="m162.081 206.836c-5.171 3.432-12.081-.272-12.081-6.478v-129.358h-46.667v129.357c0 6.206 6.91 9.91 12.081 6.478 2.785-1.848 5.695-3.613 11.253-3.613 11.667 0 11.667 7.778 23.335 7.778 6.538 0 9.412-2.443 12.729-4.591-.217.142-.434.284-.65.427z" fill="#fcf2c8"/></g><g><path d="m266.007 274.954-23.845-35.767c-1.539-2.309-4.932-2.309-6.472 0l-23.845 35.767c-1.723 2.584.13 6.046 3.236 6.046h8.289v19.444c0 2.148 1.741 3.889 3.889 3.889h23.333c2.148 0 3.889-1.741 3.889-3.889v-19.444h8.289c3.107 0 4.96-3.462 3.237-6.046z" fill="#fff"/></g><g><path d="m238.927 300.444v-19.444h-8.289c-3.106 0-4.959-3.462-3.236-6.046l19.302-28.954-4.542-6.813c-1.539-2.309-4.932-2.309-6.471 0l-23.845 35.767c-1.723 2.584.13 6.046 3.236 6.046h8.289v19.444c0 2.148 1.741 3.889 3.889 3.889h15.556c-2.148 0-3.889-1.741-3.889-3.889z" fill="#fcf2c8"/></g><g><path d="m260.833 327.667h-43.813c-3.222 0-5.833-2.612-5.833-5.833 0-3.222 2.612-5.833 5.833-5.833h43.813c3.222 0 5.833 2.612 5.833 5.833.001 3.221-2.611 5.833-5.833 5.833z" fill="#fff"/></g></g><g><path d="m432 461h-304.551v10.002c34.895 19.119 74.946 29.998 117.551 29.998h187c5.52 0 10.52-2.24 14.14-5.86s5.86-8.62 5.86-14.14c0-11.05-8.95-20-20-20z" fill="#543e5b"/></g><g><path d="m256 481c0-11.05 8.95-20 20-20h-148.551v9.981c34.898 19.126 74.948 30.019 117.551 30.019 8.184 0 16.273-.41 24.251-1.194-2.803-1.007-5.327-2.601-7.391-4.666-3.62-3.62-5.86-8.62-5.86-14.14z" fill="#45304c"/></g><g><path d="m512 411c0 16.57-6.72 31.57-17.57 42.43-10.86 10.85-25.86 17.57-42.43 17.57h-324.56c-48.35-26.49-86.79-68.82-108.34-120h432.9c6.18 0 12.14.93 17.75 2.67 24.47 7.57 42.25 30.37 42.25 57.33z" fill="#6c5475"/></g><g><path d="m127.449 471h124.551c-8.284 0-15-6.716-15-15s6.716-15 15-15v-60c-8.284 0-15-6.716-15-15s6.716-15 15-15h-232.896c21.552 51.185 59.994 93.507 108.345 120z" fill="#543e5b"/></g><g><path d="m52 381v14.723l21.979 15.277v20.409c3.374 3.291 6.831 6.498 10.391 9.591h367.63v-60z" fill="#45304c"/></g><g><path d="m71.213 401h380.787v20h-380.787z" fill="#6c5475"/></g><g><g><circle cx="452" cy="411" fill="#a98bbc" r="30"/></g><g><path d="m442 431c0-5.523 4.477-10 10-10v-20c-5.523 0-10-4.477-10-10s4.477-10 10-10c-16.569 0-30 13.431-30 30s13.431 30 30 30c-5.523 0-10-4.477-10-10z" fill="#876d93"/></g><g><circle cx="452" cy="411" fill="#6c5475" r="10"/></g></g><g><g><circle cx="352" cy="411" fill="#a98bbc" r="30"/></g><g><path d="m342 431c0-5.523 4.477-10 10-10v-20c-5.523 0-10-4.477-10-10s4.477-10 10-10c-16.569 0-30 13.431-30 30s13.431 30 30 30c-5.523 0-10-4.477-10-10z" fill="#876d93"/></g><g><circle cx="352" cy="411" fill="#6c5475" r="10"/></g></g><g><g><circle cx="252" cy="411" fill="#a98bbc" r="30"/></g><g><path d="m242 431c0-5.523 4.477-10 10-10v-20c-5.523 0-10-4.477-10-10s4.477-10 10-10c-16.569 0-30 13.431-30 30s13.431 30 30 30c-5.523 0-10-4.477-10-10z" fill="#876d93"/></g><g><circle cx="252" cy="411" fill="#6c5475" r="10"/></g></g><g><g><circle cx="152" cy="411" fill="#a98bbc" r="30"/></g><g><path d="m142 431c0-5.523 4.477-10 10-10v-20c-5.523 0-10-4.477-10-10s4.477-10 10-10c-16.569 0-30 13.431-30 30s13.431 30 30 30c-5.523 0-10-4.477-10-10z" fill="#876d93"/></g><g><circle cx="152" cy="411" fill="#6c5475" r="10"/></g></g><g><path d="m52 381c-5.555 0-10.754 1.516-15.216 4.148 10.508 16.906 23.016 32.435 37.195 46.262 4.975-5.355 8.021-12.525 8.021-20.41 0-16.569-13.431-30-30-30z" fill="#a98bbc"/></g><g><path d="m52 401c-1.386 0-2.706.283-3.907.793 3.824 5.157 7.844 10.16 12.052 14.994 1.164-1.634 1.855-3.628 1.855-5.787 0-5.523-4.477-10-10-10z" fill="#6c5475"/></g><g><g><path d="m437.692 191h-41.026l-26.666 14.534-26.667-14.534h-41.026c-6.797 0-12.307 5.51-12.307 12.308v147.692h147.692c6.797 0 12.308-5.51 12.308-12.308v-135.384c0-6.798-5.51-12.308-12.308-12.308z" fill="#ffdd40"/></g><g><path d="m320.769 338.692v-135.384c0-6.797 5.51-12.308 12.308-12.308h-30.769c-6.798 0-12.308 5.51-12.308 12.308v147.692h43.077c-6.797 0-12.308-5.51-12.308-12.308z" fill="#ffc839"/></g><g><path d="m343.333 264.919c0 3.547 3.949 5.663 6.904 3.702 1.592-1.056 3.255-2.065 6.431-2.065 6.667 0 6.667 4.444 13.334 4.444 6.666 0 6.666-4.444 13.332-4.444 3.175 0 4.838 1.008 6.429 2.064 2.955 1.961 6.904-.155 6.904-3.702v-73.918h-53.333v73.919z" fill="#fff"/></g><g><path d="m376.904 268.62c-2.955 1.961-6.904-.155-6.904-3.702v-73.918h-26.667v73.919c0 3.547 3.949 5.663 6.904 3.702 1.592-1.056 3.255-2.065 6.431-2.065 6.667 0 6.667 4.444 13.334 4.444 3.736 0 5.378-1.396 7.274-2.623-.125.08-.249.162-.372.243z" fill="#fcf2c8"/></g></g></g></svg>