<?xml version="1.0" encoding="UTF-8" standalone="no"?> <svg height="512pt" viewBox="0 -31 512 512" width="512pt" xmlns="http://www.w3.org/2000/svg"><path d="m61 0h90v90h-90zm0 0" fill="#c4d9f2"/><path d="m361 0h90v90h-90zm0 0" fill="#a9c3ea"/><path d="m30 90v330h121l30-30v-270l-30-30zm0 0" fill="#fdbf00"/><path d="m361 90-30 30v270l30 30h121v-330zm0 0" fill="#ff9100"/><path d="m151 90h210v330h-210zm0 0" fill="#ffda2d"/><path d="m256 90h105v330h-105zm0 0" fill="#fdbf00"/><path d="m391 180h30v30h-30zm0 0" fill="#5b5555"/><path d="m391 300h30v30h-30zm0 0" fill="#5b5555"/><g fill="#766e6e"><path d="m91 180h30v30h-30zm0 0"/><path d="m91 300h30v30h-30zm0 0"/><path d="m317.199219 240-61.199219 76.5-18.300781 22.800781-23.398438-18.601562 40.5-50.699219h-60l61.199219-76.5 18.300781-22.800781 23.398438 18.601562-40.5 50.699219zm0 0"/></g><path d="m317.199219 240-61.199219 76.5v-123l18.300781-22.800781 23.398438 18.601562-40.5 50.699219zm0 0" fill="#5b5555"/><path d="m0 60h512v60h-512zm0 0" fill="#766e6e"/><path d="m256 60h256v60h-256zm0 0" fill="#5b5555"/><path d="m0 390h512v60h-512zm0 0" fill="#766e6e"/><path d="m256 390h256v60h-256zm0 0" fill="#5b5555"/></svg>