<?xml version="1.0" encoding="UTF-8" standalone="no"?>
<!-- Created with Inkscape (http://www.inkscape.org/) -->

<svg
   version="1.1"
   id="svg810"
   width="682.66669"
   height="682.66669"
   viewBox="0 0 682.66669 682.66669"
   xmlns="http://www.w3.org/2000/svg"
   xmlns:svg="http://www.w3.org/2000/svg">
  <defs
     id="defs814">
    <clipPath
       clipPathUnits="userSpaceOnUse"
       id="clipPath824">
      <path
         d="M 0,512 H 512 V 0 H 0 Z"
         id="path822" />
    </clipPath>
  </defs>
  <g
     id="g816"
     transform="matrix(1.3333333,0,0,-1.3333333,0,682.66667)">
    <g
       id="g818">
      <g
         id="g820"
         clip-path="url(#clipPath824)">
        <g
           id="g826"
           transform="translate(255.4624,511)">
          <path
             d="m 0,0 c -107.764,-0.016 -199.94,-66.747 -237.473,-161.141 -0.116,-0.292 -0.232,-0.584 -0.347,-0.876 -19.175,-48.751 -1.593,-104.292 41.859,-133.555 l 146.444,-115.363 c 63.187,-49.775 149.83,-58.916 221.25,-21.914 14.895,7.717 27.216,16.483 34.672,26.678 31.049,42.454 49.315,94.849 49.131,151.519 C 255.081,-114.339 140.314,0.02 0,0"
             style="fill:#00b7f0;fill-opacity:1;fill-rule:nonzero;stroke:none"
             id="path828" />
        </g>
        <g
           id="g830"
           transform="translate(312.6133,99.5117)">
          <path
             d="m 0,0 c 0,-5.55 4.5,-10.05 10.05,-10.05 5.551,0 10.051,4.5 10.051,10.05 0,5.551 -4.5,10.05 -10.051,10.05 C 4.5,10.05 0,5.551 0,0"
             style="fill:#0091c8;fill-opacity:1;fill-rule:nonzero;stroke:none"
             id="path832" />
        </g>
        <g
           id="g834"
           transform="translate(325.1299,202.5093)">
          <path
             d="m 0,0 c 1.788,-1.793 41.93,-42.048 43.751,-43.437 15.798,-12.413 39.887,-4.936 45.271,15.21 l 25.032,93.665 c 20.961,22.606 40.382,49.116 56.077,76.022 C 150.226,195.387 112.645,240.744 64.42,270.525 44.134,259.808 23.818,246.802 5.041,232.577 -12.635,219.189 -23.571,208.83 -24.711,207.847 l -96.54,-25.801 c -21.39,-5.716 -28.393,-32.4 -12.86,-47.935 l 21.199,-21.199 20.864,-20.864 c -0.035,-6.558 0.66,-12.704 2.073,-18.85 l -30.911,-30.911 c -20.383,1.203 -41.168,-5.967 -56.741,-21.54 -7.281,-7.282 -19.486,-4.816 -23.623,4.613 -0.266,0.603 -0.54,1.201 -0.824,1.794 -0.088,0.182 -0.183,0.353 -0.281,0.519 -4.001,8.141 -9.785,15.247 -16.872,20.775 -6.941,5.412 -9.788,14.718 -6.795,22.995 2.342,6.481 3.417,13.569 2.917,20.967 -3.201,47.439 -66.148,66.266 -93.834,24.977 -42.137,-170.417 207.564,-356.715 343.481,-301.321 39.33,16.03 75.714,42.545 103.973,78.251 18.963,23.961 -14.235,54.126 -36.294,32.982 -10.965,-10.51 -22.874,-20.051 -35.586,-28.491 -5.167,-3.431 -11.681,-3.444 -17.221,-0.656 -4.569,2.299 -9.917,-0.83 -10.398,-5.708 -0.609,-6.208 -4.231,-11.732 -9.932,-14.264 -10.284,-4.568 -20.934,-8.468 -31.893,-11.66 -6.057,-1.765 -12.538,0.273 -16.547,5.144 -0.023,0.027 -0.046,0.054 -0.068,0.082 -9.57,11.563 -23.28,19.78 -38.533,22.553 -10.272,1.867 -14.346,14.358 -6.963,21.741 15.573,15.573 22.744,36.358 21.541,56.741 L -21.447,2.714 C -14.611,0.903 -7.459,-0.039 0,0"
             style="fill:#0091c8;fill-opacity:1;fill-rule:nonzero;stroke:none"
             id="path836" />
        </g>
        <g
           id="g838"
           transform="translate(141.8608,259.478)">
          <path
             d="m 0,0 c 7.164,0 12.972,5.808 12.972,12.971 0,7.164 -5.808,12.972 -12.972,12.972 -7.164,0 -12.972,-5.808 -12.972,-12.972 C -12.972,5.808 -7.164,0 0,0"
             style="fill:#0091c8;fill-opacity:1;fill-rule:nonzero;stroke:none"
             id="path840" />
        </g>
        <g
           id="g842"
           transform="translate(135.375,314.3208)">
          <path
             d="m 0,0 c 3.582,0 6.486,2.904 6.486,6.486 0,3.582 -2.904,6.486 -6.486,6.486 -3.582,0 -6.486,-2.904 -6.486,-6.486 C -6.486,2.904 -3.582,0 0,0"
             style="fill:#0091c8;fill-opacity:1;fill-rule:nonzero;stroke:none"
             id="path844" />
        </g>
        <g
           id="g846"
           transform="translate(294.7563,68.0981)">
          <path
             d="m 0,0 c -9.228,-1.729 -18.565,2.254 -24.185,9.775 -9.893,13.241 -24.463,22.156 -40.518,25.074 -10.273,1.868 -14.346,14.358 -6.964,21.741 28.915,28.914 28.915,75.793 0,104.707 v 0 c -28.914,28.914 -75.793,28.914 -104.707,0 -7.281,-7.281 -19.485,-4.815 -23.623,4.613 -4.044,9.213 -10.351,17.205 -18.218,23.276 -6.961,5.37 -9.527,14.566 -6.543,22.836 2.335,6.474 3.405,13.551 2.907,20.938 -1.706,25.271 -22.038,45.753 -47.297,47.618 -2.744,0.203 -5.445,0.184 -8.091,-0.03 -11.305,-28.861 -17.517,-60.277 -17.517,-93.146 0,-141.109 114.391,-255.5 255.5,-255.5 34.001,0 66.443,6.658 96.115,18.715 0.113,2.383 0.059,4.801 -0.194,7.244 C 53.704,-13.555 26.482,4.963 0,0"
             style="fill:#fff;fill-opacity:1;fill-rule:nonzero;stroke:none"
             id="path848" />
        </g>
        <g
           id="g850"
           transform="translate(93.9355,235.8022)">
          <path
             d="m 0,0 c -3.162,6.591 -13.252,2.091 -10.464,-4.666 0.805,-1.952 1.862,-3.589 3.241,-4.654 7.868,-6.07 14.175,-14.063 18.218,-23.275 4.138,-9.428 16.343,-11.894 23.624,-4.613 28.914,28.914 75.793,28.914 104.707,0 4.387,-4.388 8.098,-9.193 11.154,-14.282 -1.614,16.457 -8.721,32.477 -21.326,45.083 v 0 C 100.24,22.507 53.361,22.507 24.447,-6.407 17.166,-13.688 4.962,-11.222 0.824,-1.794 0.559,-1.19 0.284,-0.592 0,0"
             style="fill:#f5f0f0;fill-opacity:1;fill-rule:nonzero;stroke:none"
             id="path852" />
        </g>
        <g
           id="g854"
           transform="translate(233.2612,93.8867)">
          <path
             d="m 0,0 v 0 c -7.383,-7.383 -3.309,-19.873 6.964,-21.741 16.181,-2.941 30.855,-11.973 40.751,-25.387 5.502,-7.457 14.845,-11.168 23.953,-9.461 11.484,2.151 23.103,-0.117 32.823,-5.705 5.861,-3.37 12.581,2.643 9.822,8.815 -8.824,19.733 -30.636,31.754 -52.626,27.726 -9.206,-1.686 -18.588,1.897 -24.145,9.428 C 31.681,-8.38 24.141,-1.976 15.606,2.538 10.481,5.248 4.168,4.174 0.072,0.072 Z"
             style="fill:#f5f0f0;fill-opacity:1;fill-rule:nonzero;stroke:none"
             id="path856" />
        </g>
        <g
           id="g858"
           transform="translate(22.2842,348.8062)">
          <path
             d="m 0,0 c -0.543,0.006 -1.084,0.001 -1.623,-0.009 -0.32,-0.007 -0.642,-0.011 -0.961,-0.023 -0.731,-0.028 -1.459,-0.07 -2.183,-0.128 -4.742,-12.107 -8.575,-24.668 -11.442,-37.592 8.618,5.026 18.83,7.624 29.705,6.821 4.429,-0.327 8.705,-1.227 12.756,-2.625 10.058,-3.469 18.131,8.959 11.042,16.829 -0.306,0.335 -0.623,0.66 -0.939,0.987 -0.209,0.218 -0.414,0.44 -0.627,0.654 -0.308,0.308 -0.626,0.607 -0.942,0.907 -0.246,0.235 -0.489,0.473 -0.74,0.702 -0.301,0.277 -0.612,0.545 -0.92,0.814 -0.277,0.243 -0.553,0.487 -0.835,0.724 -0.296,0.247 -0.599,0.487 -0.901,0.728 -0.308,0.247 -0.617,0.494 -0.931,0.733 -0.289,0.222 -0.584,0.436 -0.877,0.65 -0.339,0.247 -0.679,0.494 -1.023,0.732 -0.284,0.197 -0.571,0.388 -0.858,0.579 -0.367,0.244 -0.735,0.484 -1.109,0.719 -0.277,0.174 -0.557,0.344 -0.838,0.513 -0.394,0.238 -0.792,0.471 -1.193,0.697 -0.271,0.153 -0.544,0.305 -0.818,0.453 -0.42,0.227 -0.843,0.448 -1.269,0.664 -0.267,0.136 -0.536,0.27 -0.806,0.401 -0.442,0.214 -0.888,0.42 -1.337,0.621 -0.264,0.119 -0.528,0.238 -0.794,0.352 -0.463,0.199 -0.931,0.387 -1.4,0.572 -0.262,0.103 -0.523,0.208 -0.787,0.307 -0.48,0.18 -0.965,0.348 -1.451,0.514 -0.262,0.089 -0.523,0.182 -0.787,0.267 -0.493,0.159 -0.992,0.305 -1.491,0.449 -0.265,0.077 -0.528,0.158 -0.794,0.23 -0.506,0.137 -1.017,0.259 -1.528,0.381 -0.267,0.064 -0.53,0.133 -0.799,0.192 C 9.979,-1.07 9.451,-0.971 8.923,-0.872 8.661,-0.823 8.401,-0.766 8.138,-0.721 7.577,-0.625 7.01,-0.547 6.444,-0.47 6.21,-0.437 5.979,-0.397 5.744,-0.368 4.942,-0.271 4.136,-0.189 3.324,-0.13 2.494,-0.068 1.669,-0.035 0.846,-0.013 0.563,-0.005 0.282,-0.003 0,0"
             style="fill:#f5f0f0;fill-opacity:1;fill-rule:nonzero;stroke:none"
             id="path860" />
        </g>
        <g
           id="g862"
           transform="translate(414.5967,291.0459)">
          <path
             d="m 0,0 -42.386,42.386 -59.597,-104.195 24.483,-61.675 c 15.601,-15.6 42.239,-8.453 47.935,12.86 z"
             style="fill:#8757f3;fill-opacity:1;fill-rule:nonzero;stroke:none"
             id="path864" />
        </g>
        <g
           id="g866"
           transform="translate(339.5127,165.3936)">
          <path
             d="m 0,0 c 9.704,-7.793 21.394,6.439 12.2,14.829 -0.338,0.308 -0.671,0.627 -0.999,0.955 H 11.2 c -6.921,6.921 -5.282,18.484 3.232,23.313 0.21,0.119 0.42,0.239 0.63,0.359 28.117,16.089 48.464,42.952 56.829,74.25 L 75.084,125.652 32.698,168.038 -54.178,81.162 -67.794,67.546 -23.615,23.367 -2.416,2.168 C -1.637,1.389 -0.83,0.667 0,0"
             style="fill:#6a2bc2;fill-opacity:1;fill-rule:nonzero;stroke:none"
             id="path868" />
        </g>
        <g
           id="g870"
           transform="translate(285.3828,420.2593)">
          <path
             d="m 0,0 42.386,-42.386 -111.469,-44.442 -54.401,9.329 c -15.6,15.6 -8.453,42.238 12.86,47.935 z"
             style="fill:#8757f3;fill-opacity:1;fill-rule:nonzero;stroke:none"
             id="path872" />
        </g>
        <g
           id="g874"
           transform="translate(159.7305,345.1758)">
          <path
             d="m 0,0 c -7.793,9.704 6.439,21.394 14.829,12.2 0.308,-0.338 0.627,-0.672 0.955,-1 6.921,-6.921 18.484,-5.282 23.314,3.232 0.118,0.21 0.238,0.419 0.358,0.629 16.089,28.118 42.952,48.465 74.25,56.83 L 125.652,75.083 168.039,32.698 81.163,-54.178 67.546,-67.794 23.367,-23.615 2.168,-2.416 C 1.389,-1.637 0.667,-0.83 0,0"
             style="fill:#6a2bc2;fill-opacity:1;fill-rule:nonzero;stroke:none"
             id="path876" />
        </g>
        <g
           id="g878"
           transform="translate(400.6006,264.2476)">
          <path
             d="m 0,0 c -71.639,-71.639 -129.517,-66.371 -168.463,-27.424 -38.948,38.947 -32.058,75.147 39.581,146.786 71.639,71.639 180.9,151.59 219.847,112.642 C 129.912,193.058 71.639,71.639 0,0"
             style="fill:#fec502;fill-opacity:1;fill-rule:nonzero;stroke:none"
             id="path880" />
        </g>
        <g
           id="g882"
           transform="translate(404.5405,387.3921)">
          <path
             d="m 0,0 c -3.154,5.222 -6.857,9.761 -10.966,13.619 -10.887,10.221 -0.686,28.358 13.55,23.85 8.837,-2.798 17.039,-7.698 23.817,-14.475 l 1.105,-1.105 C 49.531,-0.136 87.29,10.053 95,40.231 c 5.906,23.112 7.158,46.138 -2.818,62.117 -23.517,37.593 -93.417,11.548 -132.794,-8.728 -0.791,-0.408 -1.582,-0.818 -2.374,-1.233 -0.001,-0.001 -0.003,-0.002 -0.004,-0.002 -36.313,-19.033 -73.177,-45.677 -101.99,-74.49 -71.639,-71.639 -66.371,-129.516 -27.423,-168.463 6.414,-6.415 13.345,-11.908 20.763,-16.303 -13.933,23.523 -16.741,51.975 -2.266,84.621 10.032,22.626 40.153,28 57.11,9.97 0.431,-0.459 0.871,-0.912 1.319,-1.361 26.811,-26.811 72.449,-23.32 94.357,10.471 C 11.238,-44.111 11.744,-19.443 0,0"
             style="fill:#ffa50a;fill-opacity:1;fill-rule:nonzero;stroke:none"
             id="path884" />
        </g>
        <g
           id="g886"
           transform="translate(483.6299,383.6099)">
          <path
             d="m 0,0 c 21.82,47.631 28.709,91.869 7.936,112.643 -20.774,20.773 -51.117,-0.012 -98.748,-21.831 z"
             style="fill:#8757f3;fill-opacity:1;fill-rule:nonzero;stroke:none"
             id="path888" />
        </g>
        <g
           id="g890"
           transform="translate(467.5723,418.3823)">
          <path
             d="m 0,0 -13.722,13.721 c -11.853,11.853 -6.879,32.079 9.128,37.056 7.532,2.342 14.832,4.176 21.808,5.445 10.042,1.826 14.108,14.23 6.934,21.492 -0.051,0.052 -0.103,0.104 -0.155,0.156 C 3.22,98.644 -41.018,91.754 -88.649,69.935 L 0,-18.714 C 5.167,-13.547 5.167,-5.168 0,0"
             style="fill:#6a2bc2;fill-opacity:1;fill-rule:nonzero;stroke:none"
             id="path892" />
        </g>
        <g
           id="g894"
           transform="translate(404.8047,323.5845)">
          <path
             d="m 0,0 c -23.723,-23.722 -62.184,-23.722 -85.907,0 -23.722,23.723 -23.722,62.184 0,85.907 23.723,23.722 62.184,23.722 85.907,0 C 23.722,62.184 23.722,23.723 0,0"
             style="fill:#fff;fill-opacity:1;fill-rule:nonzero;stroke:none"
             id="path896" />
        </g>
        <g
           id="g898"
           transform="translate(140.4585,97.769)">
          <path
             d="m 0,0 -24.967,-3.206 c -4.818,-0.618 -8.92,3.483 -8.301,8.301 l 3.206,24.967 c 3.202,24.943 14.585,48.119 32.367,65.901 17.562,17.561 46.034,17.561 63.596,0 17.561,-17.562 17.561,-46.034 0,-63.595 C 48.119,14.586 24.942,3.203 0,0"
             style="fill:#f5f0f0;fill-opacity:1;fill-rule:nonzero;stroke:none"
             id="path900" />
        </g>
        <g
           id="g902"
           transform="translate(143.8867,120.1299)">
          <path
             d="m 0,0 -34.491,-4.428 c 0,0 26.312,73.419 44.094,91.201 0,0 27.771,26.047 44.61,17.627 4.217,-2.108 8.171,-4.92 11.687,-8.437 h 10e-4 c 17.561,-17.561 17.561,-46.034 0,-63.595 H 65.9 C 48.119,14.586 24.942,3.203 0,0"
             style="fill:#fec502;fill-opacity:1;fill-rule:nonzero;stroke:none"
             id="path904" />
        </g>
        <g
           id="g906"
           transform="translate(392.2236,336.1655)">
          <path
             d="m 0,0 c -16.774,-16.774 -43.971,-16.774 -60.745,0 -16.775,16.774 -9.298,34.306 7.476,51.081 14.678,14.677 29.858,26.176 46.531,15.168 C -4.356,64.676 -2.097,62.842 0,60.745 16.774,43.971 16.774,16.774 0,0"
             style="fill:#00b7f0;fill-opacity:1;fill-rule:nonzero;stroke:none"
             id="path908" />
        </g>
        <g
           id="g910"
           transform="translate(219.7886,206.0918)">
          <path
             d="M 0,0 -44.754,44.754 -13.753,75.755 31.001,31.001 Z"
             style="fill:#6a2bc2;fill-opacity:1;fill-rule:nonzero;stroke:none"
             id="path912" />
        </g>
        <g
           id="g914"
           transform="translate(244.5405,181.3398)">
          <path
             d="m 0,0 -34.003,34.003 c -8.561,8.561 -8.561,22.441 0,31.001 8.56,8.561 22.44,8.561 31.001,0 L 31.001,31.001 Z"
             style="fill:#8757f3;fill-opacity:1;fill-rule:nonzero;stroke:none"
             id="path916" />
        </g>
        <g
           id="g918"
           transform="translate(362.9092,342.7334)">
          <path
             d="M 0,0 V 0 C 3.57,3.571 3.57,9.36 0,12.931 L -13.02,25.95 c -2.863,2.863 -3.018,7.513 -0.252,10.469 0.079,0.084 0.157,0.168 0.236,0.251 2.892,3.041 7.773,2.984 10.741,0.016 l 3.939,-3.939 c 3.443,-3.444 9.049,-3.852 12.708,-0.638 4.009,3.522 4.157,9.634 0.444,13.348 -1.647,1.646 -0.516,4.443 1.812,4.522 0.083,0.003 0.167,0.006 0.251,0.008 6.216,0.176 8.282,8.439 2.826,11.423 -15.644,8.555 -35.854,6.81 -49.727,-5.904 -18.151,-16.634 -18.614,-44.849 -1.389,-62.074 1.181,-1.18 2.412,-2.276 3.688,-3.288 2.499,-1.982 6.024,0.459 5.03,3.489 -0.03,0.09 -0.059,0.18 -0.088,0.269 -1.922,5.985 5.425,10.543 9.87,6.098 C -9.36,-3.571 -3.571,-3.571 0,0"
             style="fill:#0091c8;fill-opacity:1;fill-rule:nonzero;stroke:none"
             id="path920" />
        </g>
        <g
           id="g922"
           transform="translate(146.1919,216.0928)">
          <path
             d="m 0,0 v 0 c -17.782,-17.782 -29.165,-40.958 -32.368,-65.9 l -4.428,-34.491 c 6.938,0.891 12.404,6.328 13.345,13.26 0.594,4.377 1.375,8.94 2.892,14.618 1.967,7.364 11.148,9.864 16.537,4.474 l 5.352,-5.352 c 4.241,-4.24 11.115,-4.24 15.356,0 4.24,4.241 4.24,11.115 0,15.355 L 2.053,-43.402 c -3.712,3.711 -4.007,9.632 -0.682,13.694 l 0.074,0.09 c 3.796,4.637 10.764,4.984 15.002,0.746 l 5.023,-5.023 c 4.24,-4.24 11.115,-4.24 15.356,0 4.24,4.24 4.24,11.115 0,15.355 -3.811,3.811 -1.113,10.379 4.276,10.333 0.177,-10e-4 0.355,-0.004 0.532,-0.007 C 53.121,-8.448 55.979,7.673 45.005,11.075 30.084,15.7 12.809,12.81 0,0"
             style="fill:#ffa50a;fill-opacity:1;fill-rule:nonzero;stroke:none"
             id="path924" />
        </g>
        <g
           id="g926"
           transform="translate(303.5937,105.6514)">
          <path
             d="m 0,0 c 0,-5.551 -4.5,-10.05 -10.05,-10.05 -5.551,0 -10.051,4.499 -10.051,10.05 0,5.55 4.5,10.05 10.051,10.05 C -4.5,10.05 0,5.55 0,0"
             style="fill:#fff;fill-opacity:1;fill-rule:nonzero;stroke:none"
             id="path928" />
        </g>
        <g
           id="g930"
           transform="translate(326.9897,101.5835)">
          <path
             d="m 0,0 c 0,3.304 2.679,5.982 5.982,5.982 3.305,0 5.983,-2.678 5.983,-5.982 0,-3.304 -2.678,-5.982 -5.983,-5.982 C 2.679,-5.982 0,-3.304 0,0"
             style="fill:#fff;fill-opacity:1;fill-rule:nonzero;stroke:none"
             id="path932" />
        </g>
        <g
           id="g934"
           transform="translate(125.7129,278.5889)">
          <path
             d="m 0,0 c 0,-7.164 -5.808,-12.972 -12.972,-12.972 -7.164,0 -12.971,5.808 -12.971,12.972 0,7.164 5.807,12.972 12.971,12.972 C -5.808,12.972 0,7.164 0,0"
             style="fill:#fff;fill-opacity:1;fill-rule:nonzero;stroke:none"
             id="path936" />
        </g>
        <g
           id="g938"
           transform="translate(112.7412,326.9458)">
          <path
             d="m 0,0 c 0,-3.582 -2.904,-6.485 -6.486,-6.485 -3.582,0 -6.486,2.903 -6.486,6.485 0,3.582 2.904,6.486 6.486,6.486 C -2.904,6.486 0,3.582 0,0"
             style="fill:#fff;fill-opacity:1;fill-rule:nonzero;stroke:none"
             id="path940" />
        </g>
      </g>
    </g>
  </g>
</svg>
