<?xml version="1.0" encoding="UTF-8" standalone="no"?>
<svg
   height="512pt"
   viewBox="0 0 512 512"
   width="512pt"
   version="1.1"
   id="svg36"
   sodipodi:docname="coding.svg"
   inkscape:version="1.1.1 (3bf5ae0d25, 2021-09-20)"
   xmlns:inkscape="http://www.inkscape.org/namespaces/inkscape"
   xmlns:sodipodi="http://sodipodi.sourceforge.net/DTD/sodipodi-0.dtd"
   xmlns="http://www.w3.org/2000/svg"
   xmlns:svg="http://www.w3.org/2000/svg">
  <defs
     id="defs40" />
  <sodipodi:namedview
     id="namedview38"
     pagecolor="#4a4a4a"
     bordercolor="#999999"
     borderopacity="1"
     inkscape:pageshadow="0"
     inkscape:pageopacity="0"
     inkscape:pagecheckerboard="true"
     inkscape:document-units="pt"
     showgrid="false"
     showguides="true"
     inkscape:guide-bbox="true"
     inkscape:zoom="2.1064453"
     inkscape:cx="389.99351"
     inkscape:cy="318.0714"
     inkscape:window-width="3515"
     inkscape:window-height="1952"
     inkscape:window-x="3139"
     inkscape:window-y="54"
     inkscape:window-maximized="0"
     inkscape:current-layer="svg36" />
  <path
     d="m512 256c0 141.386719-114.613281 256-256 256s-256-114.613281-256-256 114.613281-256 256-256 256 114.613281 256 256zm0 0"
     fill="#0069a3"
     id="path2" />
  <path
     d="m185.472656 405.53125h141.054688v62.691406h-141.054688zm0 0"
     fill="#87a8e6"
     id="path4" />
  <path
     d="m485.609375 90.9375v278.390625c-9.625 19.46875-21.652344 37.53125-35.695313 53.800781-1.628906.199219-3.28125.304688-4.960937.304688h-377.898437c-1.683594 0-3.332032-.105469-4.964844-.304688-14.054688-16.277344-26.078125-34.332031-35.691406-53.800781v-278.390625c0-22.457031 18.199218-40.65625 40.65625-40.65625h377.898437c22.453125 0 40.65625 18.199219 40.65625 40.65625zm0 0"
     fill="#d4e4ff"
     id="path6" />
  <path
     d="m464.710938 90.9375v255.265625c0 10.898437-8.871094 19.761719-19.757813 19.761719h-377.898437c-10.898438 0-19.757813-8.863282-19.757813-19.761719v-255.265625c0-10.898438 8.859375-19.761719 19.757813-19.761719h377.898437c10.886719 0 19.757813 8.863281 19.757813 19.761719zm0 0"
     fill="#244477"
     id="path8" />
  <path
     d="m372.988281 481.824219c0 .667969-.019531 1.324219-.070312 1.984375-35.046875 18.023437-74.796875 28.191406-116.914063 28.191406-42.132812 0-81.878906-10.179688-116.925781-28.203125-.050781-.65625-.070313-1.316406-.070313-1.972656 0-8.328125 3.375-15.875 8.839844-21.339844s13.007813-8.839844 21.335938-8.839844h173.628906c16.667969 0 30.175781 13.511719 30.175781 30.179688zm0 0"
     fill="#d4e4ff"
     id="path10" />
  <path
     d="M 163.63281,213.63672 H 86.292969 c -5.960938,0 -10.796875,-4.83594 -10.796875,-10.79688 0,-5.96484 4.835937,-10.79687 10.796875,-10.79687 h 77.339841 c 5.96485,0 10.79688,4.83203 10.79688,10.79687 0,5.96094 -4.83203,10.79688 -10.79688,10.79688 z m 0,0"
     fill="#ffffff"
     id="path12"
     style="display:none" />
  <path
     d="M 163.63281,255.9375 H 86.292969 c -5.960938,0 -10.796875,-4.83594 -10.796875,-10.79688 0,-5.96484 4.835937,-10.79687 10.796875,-10.79687 h 77.339841 c 5.96485,0 10.79688,4.83203 10.79688,10.79687 0,5.96094 -4.83203,10.79688 -10.79688,10.79688 z m 0,0"
     fill="#0069a3"
     id="path14"
     style="display:none" />
  <path
     d="M 163.63281,298.23828 H 86.292969 c -5.960938,0 -10.796875,-4.83594 -10.796875,-10.79687 0,-5.96485 4.835937,-10.79688 10.796875,-10.79688 h 77.339841 c 5.96485,0 10.79688,4.83203 10.79688,10.79688 0,5.96093 -4.83203,10.79687 -10.79688,10.79687 z m 0,0"
     fill="#fcd971"
     id="path16"
     style="display:none" />
  <path
     d="M 163.63281,340.53906 H 86.292969 c -5.960938,0 -10.796875,-4.83594 -10.796875,-10.79687 0,-5.96485 4.835937,-10.79688 10.796875,-10.79688 h 77.339841 c 5.96485,0 10.79688,4.83203 10.79688,10.79688 0,5.96093 -4.83203,10.79687 -10.79688,10.79687 z m 0,0"
     fill="#0069a3"
     id="path18"
     style="display:none" />
  <path
     d="M 425.97266,213.63672 H 227.78125 c -5.96094,0 -10.79688,-4.83594 -10.79688,-10.79688 0,-5.96484 4.83594,-10.79687 10.79688,-10.79687 h 198.19141 c 5.96484,0 10.79687,4.83203 10.79687,10.79687 0,5.96094 -4.83203,10.79688 -10.79687,10.79688 z m 0,0"
     fill="#228bd1"
     id="path20"
     style="display:none" />
  <path
     d="M 425.97266,255.9375 H 227.78125 c -5.96094,0 -10.79688,-4.83594 -10.79688,-10.79688 0,-5.96484 4.83594,-10.79687 10.79688,-10.79687 h 198.19141 c 5.96484,0 10.79687,4.83203 10.79687,10.79687 0,5.96094 -4.83203,10.79688 -10.79687,10.79688 z m 0,0"
     fill="#ff4079"
     id="path22"
     style="display:none" />
  <path
     d="M 425.97266,298.23828 H 227.78125 c -5.96094,0 -10.79688,-4.83594 -10.79688,-10.79687 0,-5.96485 4.83594,-10.79688 10.79688,-10.79688 h 198.19141 c 5.96484,0 10.79687,4.83203 10.79687,10.79688 0,5.96093 -4.83203,10.79687 -10.79687,10.79687 z m 0,0"
     fill="#ffffff"
     id="path24"
     style="display:none" />
  <path
     d="M 425.97266,340.53906 H 227.78125 c -5.96094,0 -10.79688,-4.83594 -10.79688,-10.79687 0,-5.96485 4.83594,-10.79688 10.79688,-10.79688 h 198.19141 c 5.96484,0 10.79687,4.83203 10.79687,10.79688 0,5.96093 -4.83203,10.79687 -10.79687,10.79687 z m 0,0"
     fill="#fcd971"
     id="path26"
     style="display:none" />
  <g
     fill="#ffffff"
     id="g34"
     style="display:none">
    <path
       d="m 181.30859,136.52734 30.33985,-19.70703 c 0.59765,-0.48047 1.43359,-0.59765 2.26953,-0.59765 3.58594,0 8.125,3.82031 8.125,8.71875 0,2.03125 -0.83594,3.82421 -2.15235,4.66015 l -21.02343,13.61719 21.02343,13.61719 c 1.31641,0.83593 2.15235,2.6289 2.15235,4.66015 0,4.89844 -4.53906,8.72266 -8.125,8.72266 -0.83594,0 -1.67188,-0.12109 -2.26953,-0.59766 l -30.33985,-19.71093 c -2.75,-1.79297 -3.70312,-4.66016 -3.70312,-6.69141 0,-2.03125 0.95312,-4.89844 3.70312,-6.69141 z m 0,0"
       id="path28" />
    <path
       d="m 282.96094,90.417969 c 0,0.71875 -0.11719,1.554687 -0.47657,2.269531 l -42.04687,86.12891 c -0.83594,1.79296 -3.10547,2.98437 -5.37891,2.98437 -4.05859,0 -6.6875,-3.34375 -6.6875,-6.32812 0,-0.71875 0.23828,-1.55469 0.59766,-2.26954 l 41.92969,-86.128901 c 0.95703,-2.03125 2.86718,-2.988281 5.01562,-2.988281 3.34375,0 7.04688,2.511718 7.04688,6.332031 z m 0,0"
       id="path30" />
    <path
       d="m 330.02734,149.90625 -30.34375,19.71094 c -0.59765,0.48047 -1.43359,0.59765 -2.26953,0.59765 -3.58203,0 -8.12109,-3.82031 -8.12109,-8.71875 0,-2.03125 0.83594,-3.82422 2.14844,-4.66015 l 21.02734,-13.61719 -21.02734,-13.61719 c -1.3125,-0.83594 -2.14844,-2.6289 -2.14844,-4.66015 0,-4.89844 4.53906,-8.72266 8.12109,-8.72266 0.83594,0 1.67188,0.12109 2.26953,0.59766 l 30.34375,19.71093 c 2.7461,1.79297 3.70313,4.66016 3.70313,6.69141 0,2.02734 -0.95703,4.89844 -3.70313,6.6875 z m 0,0"
       id="path32" />
  </g>
  <path
     d="m 246.50393,130.268 a 2.951449,2.951449 0 0 1 0.1021,0.76249 v 40.02881 a 2.9186142,2.9186142 0 0 1 -1.46661,2.5319 l -33.59693,19.34309 v 38.33966 c 0,1.0434 -0.55454,2.00652 -1.4593,2.53188 l -70.13062,40.37177 c -0.16049,0.0912 -0.33563,0.14953 -0.51076,0.21157 -0.0656,0.0219 -0.12766,0.062 -0.197,0.0801 a 2.9368555,2.9368555 0 0 1 -1.49579,0 c -0.0801,-0.0218 -0.15338,-0.0656 -0.22986,-0.0948 -0.16048,-0.0584 -0.32833,-0.10941 -0.48155,-0.19699 L 66.9216,233.80583 a 2.9222625,2.9222625 0 0 1 -1.466593,-2.53188 V 111.18754 c 0,-0.26267 0.03648,-0.51806 0.10213,-0.76612 0.02188,-0.0839 0.07294,-0.16049 0.102119,-0.24444 0.05471,-0.15336 0.105778,-0.3101 0.186048,-0.45239 0.05471,-0.0948 0.134949,-0.17141 0.200655,-0.25902 0.08389,-0.11666 0.160482,-0.23714 0.259031,-0.33927 0.08389,-0.0839 0.193361,-0.14589 0.28821,-0.21891 0.105778,-0.0875 0.200654,-0.18241 0.321051,-0.25172 h 0.0036 L 101.97775,88.469774 a 2.9259109,2.9259109 0 0 1 2.91861,0 l 35.05987,20.185896 h 0.006 c 0.11678,0.0729 0.21524,0.16412 0.32105,0.24807 0.0947,0.0732 0.20067,0.13877 0.28456,0.21888 0.1021,0.10578 0.17509,0.22622 0.2627,0.34295 0.062,0.0875 0.14588,0.1643 0.19699,0.25902 0.0839,0.1459 0.13131,0.29916 0.1897,0.45239 0.0291,0.0839 0.0801,0.16049 0.1022,0.24809 a 2.951449,2.951449 0 0 1 0.1021,0.76247 v 75.00472 l 29.21655,-16.82213 v -38.34331 c 0,-0.25537 0.0365,-0.5144 0.10209,-0.75883 0.0253,-0.0875 0.0732,-0.16414 0.1021,-0.2481 0.0584,-0.15336 0.10941,-0.3101 0.18969,-0.45239 0.0548,-0.0947 0.13495,-0.17142 0.19703,-0.25901 0.0875,-0.11665 0.16048,-0.23714 0.26268,-0.3393 0.0839,-0.0839 0.18968,-0.14591 0.28456,-0.21889 0.1094,-0.0878 0.2043,-0.18243 0.32103,-0.25175 h 0.005 l 35.06172,-20.18582 a 2.9222625,2.9222625 0 0 1 2.91856,0 l 35.05989,20.18582 c 0.12403,0.0732 0.21889,0.16432 0.32833,0.24809 0.0912,0.0729 0.19703,0.13878 0.28091,0.2189 0.10221,0.10567 0.17508,0.22618 0.26268,0.34295 0.0656,0.0875 0.1459,0.16432 0.19701,0.25901 0.0839,0.14225 0.13131,0.29917 0.18971,0.45239 0.0328,0.0839 0.0801,0.16049 0.1021,0.2481 z m -5.74237,39.10215 v -33.28682 l -12.26912,7.06306 -16.94987,9.75912 v 33.28677 l 29.22263,-16.82213 z m -35.05985,60.21465 v -33.30871 l -16.67257,9.522 -47.6099,27.17229 v 33.62245 z M 71.299507,116.24043 V 229.5848 l 64.275203,37.00437 v -33.61514 l -33.57866,-19.0038 -0.0112,-0.006 -0.0146,-0.006 c -0.11328,-0.0656 -0.20794,-0.16048 -0.31375,-0.24079 -0.0911,-0.0729 -0.197,-0.13129 -0.27728,-0.21159 l -0.006,-0.0113 c -0.0948,-0.0912 -0.16048,-0.20429 -0.24077,-0.30647 -0.0729,-0.0986 -0.16048,-0.18239 -0.21891,-0.28455 l -0.004,-0.0113 c -0.0657,-0.10939 -0.10582,-0.24076 -0.15337,-0.36482 -0.0475,-0.1094 -0.10945,-0.21161 -0.13878,-0.32834 v -0.005 c -0.0365,-0.13878 -0.0438,-0.28459 -0.0583,-0.42687 -0.0146,-0.10939 -0.0438,-0.21888 -0.0438,-0.32832 v -78.37561 l -16.946405,-9.76273 -12.269104,-7.05573 z m 32.141233,-21.867723 -29.21168,16.814843 29.20439,16.81488 29.20804,-16.81851 -29.20804,-16.811213 z m 15.19139,104.938773 16.94623,-9.75547 v -73.31558 l -12.26914,7.063 -16.94986,9.75914 v 73.3156 z m 89.99186,-85.09585 -29.20805,16.81486 29.20805,16.81486 29.20438,-16.81851 z m -2.92228,38.68988 -16.94987,-9.75912 -12.26911,-7.06306 v 33.28682 l 16.9462,9.75543 12.27278,7.0667 z m -67.20838,75.01204 42.8416,-24.45799 21.41535,-12.22172 -29.18617,-16.80391 -33.60418,19.34675 -30.62724,17.63211 z"
     fill="#ff2d20"
     id="path857"
     style="display:inline;stroke-width:3.64827" />
  <g
     id="g1057"
     transform="matrix(0.76362841,0,0,0.76362841,254.74514,155.48773)">
    <circle
       fill="#1a171b"
       cx="128"
       cy="128.827"
       r="128"
       id="circle1045" />
    <path
       d="m 183.706,48.124 c -12.986,0.453 -24.32,7.61 -32.757,17.51 -9.342,10.855 -15.557,23.73 -20.035,36.872 -8.01,-6.565 -14.19,-15.064 -27.041,-18.77 -9.933,-2.852 -20.366,-1.674 -29.96,5.474 -4.545,3.395 -7.676,8.527 -9.165,13.351 -3.855,12.537 4.053,23.694 7.645,27.7 l 7.853,8.416 c 1.619,1.65 5.518,5.955 3.612,12.127 -2.06,6.71 -10.15,11.055 -18.448,8.495 -3.706,-1.13 -9.03,-3.891 -7.838,-7.779 0.493,-1.59 1.631,-2.78 2.241,-4.155 0.56,-1.181 0.827,-2.067 0.997,-2.587 1.516,-4.95 -0.555,-11.39 -5.857,-13.025 -4.946,-1.516 -10.007,-0.315 -11.969,6.054 -2.225,7.235 1.237,20.366 19.783,26.084 21.729,6.676 40.11,-5.155 42.717,-20.586 1.642,-9.665 -2.722,-16.845 -10.717,-26.08 l -6.514,-7.204 c -3.946,-3.942 -5.301,-10.661 -1.217,-15.825 3.446,-4.356 8.354,-6.215 16.392,-4.029 11.733,3.186 16.963,11.327 25.69,17.893 -3.603,11.819 -5.958,23.682 -8.09,34.32 l -1.299,7.931 c -6.238,32.721 -11,50.688 -23.375,61.003 -2.493,1.773 -6.057,4.427 -11.429,4.612 -2.816,0.087 -3.726,-1.85 -3.765,-2.694 -0.067,-1.977 1.599,-2.883 2.706,-3.773 1.654,-0.902 4.155,-2.398 3.985,-7.191 -0.18,-5.664 -4.872,-10.575 -11.654,-10.35 -5.08,0.173 -12.823,4.954 -12.532,13.705 0.303,9.039 8.728,15.813 21.43,15.384 6.79,-0.233 21.952,-2.997 36.895,-20.76 17.392,-20.362 22.256,-43.705 25.915,-60.79 l 4.084,-22.556 c 2.269,0.272 4.695,0.453 7.334,0.516 21.661,0.457 32.496,-10.763 32.657,-18.924 0.107,-4.939 -3.241,-9.799 -7.928,-9.689 -3.355,0.095 -7.57,2.328 -8.582,6.968 -0.988,4.552 6.893,8.66 0.733,12.65 -4.376,2.832 -12.221,4.828 -23.269,3.206 l 2.009,-11.103 c 4.1,-21.055 9.157,-46.954 28.341,-47.584 1.398,-0.071 6.514,0.063 6.633,3.446 0.035,1.13 -0.245,1.418 -1.568,4.005 -1.347,2.017 -1.855,3.734 -1.792,5.707 0.185,5.376 4.273,8.909 10.185,8.696 7.916,-0.256 10.193,-7.963 10.063,-11.921 -0.32,-9.3 -10.122,-15.175 -23.1,-14.75 z"
       fill="#ffffff"
       id="path1047" />
  </g>
</svg>
